<svg viewBox="0 0 32 30" fill="none" xmlns="http://www.w3.org/2000/svg">
    <path d="M26.6758 10.4867C26.6758 12.8908 25.848 15.1092 24.4543 16.88L22.2514 13.0483C22.5874 12.2592 22.7735 11.3942 22.7735 10.4867C22.7735 7.1225 20.2194 4.33333 16.915 3.895C16.6152 3.85333 16.3095 3.83333 15.9996 3.83333C15.6905 3.83333 15.3857 3.85333 15.0876 3.89333C11.7832 4.3325 9.22654 7.1225 9.22654 10.4867C9.22654 11.3942 9.4118 12.26 9.74948 13.0492L7.54569 16.8817C6.15369 15.1108 5.32422 12.8925 5.32422 10.4867C5.32422 4.70417 10.1133 0 15.9996 0C21.8867 0 26.6758 4.70417 26.6758 10.4867Z" fill="#C75E5E"/>
    <path d="M20.3082 9.67079C18.4152 6.37829 13.5865 6.37829 11.6918 9.67079L0 30H9.83747C11.2143 30 12.528 29.4366 13.4644 28.445L16.0008 25.7608L16.3663 26.1491L20.0042 30H32L20.3082 9.67079ZM16.7848 11.3741L19.6076 16.2808L16.0008 20.1L12.3924 16.2808L15.2135 11.375C15.5596 10.7741 16.4404 10.7741 16.7865 11.375L16.7848 11.3741ZM10.2863 26.1491H6.71747L10.3688 19.8L13.3263 22.9308L10.2863 26.1491ZM21.7137 26.1491L18.6737 22.9308L21.6312 19.8L25.2834 26.1491H21.7137Z" fill="#5E7BC7"/>
</svg>